 
<svg width="344" height="82" viewBox="0 0 344 82" fill="none" xmlns="http://www.w3.org/2000/svg">
<path fill-rule="evenodd" clip-rule="evenodd" d="M187.806 59.583C168.57 45.5794 165.567 46.6974 127.575 82C163.261 44.4162 164.392 41.4574 150.236 22.417C169.472 36.4206 172.474 35.3026 210.466 0C174.78 37.5838 173.65 40.5426 187.806 59.583ZM331.842 59.3685C329.719 59.3685 328.086 58.7926 326.945 57.6407C325.803 56.4888 325.232 54.9077 325.232 52.9088V27.8266H314.068V22.643H325.232V9.57679H331.226V22.643H343.372V27.8266H331.226V52.0166C331.226 53.5186 331.956 54.2753 333.429 54.2753H341.706V59.3798H331.831L331.842 59.3685ZM5.91475 36.2475V58.56H0.215881V21.4691H5.72156V27.2645H6.20452C7.07384 25.381 8.39391 23.8678 10.1647 22.7248C11.9356 21.5657 14.2216 20.9861 17.0227 20.9861C19.5341 20.9861 21.7315 21.5013 23.615 22.5316C25.4986 23.5458 26.9635 25.0912 28.0099 27.1679C29.0563 29.2286 29.5795 31.8365 29.5795 34.9918V58.56H23.8807V35.3782C23.8807 32.4644 23.124 30.1945 21.6108 28.5685C20.0975 26.9265 18.0208 26.1054 15.3807 26.1054C13.5615 26.1054 11.9356 26.4999 10.5028 27.2887C9.08615 28.0775 7.9673 29.2286 7.14628 30.7418C6.32526 32.2551 5.91475 34.0903 5.91475 36.2475ZM55.0614 59.3327C51.7129 59.3327 48.7749 58.5359 46.2475 56.9421C43.7361 55.3484 41.7721 53.1187 40.3554 50.2532C38.9549 47.3876 38.2546 44.0392 38.2546 40.2077C38.2546 36.3441 38.9549 32.9715 40.3554 30.0898C41.7721 27.2082 43.7361 24.9705 46.2475 23.3768C48.7749 21.783 51.7129 20.9861 55.0614 20.9861C58.4099 20.9861 61.3398 21.783 63.8512 23.3768C66.3786 24.9705 68.3427 27.2082 69.7432 30.0898C71.1599 32.9715 71.8682 36.3441 71.8682 40.2077C71.8682 44.0392 71.1599 47.3876 69.7432 50.2532C68.3427 53.1187 66.3786 55.3484 63.8512 56.9421C61.3398 58.5359 58.4099 59.3327 55.0614 59.3327ZM55.0614 54.2134C57.605 54.2134 59.6978 53.5614 61.3398 52.2574C62.9819 50.9535 64.1973 49.239 64.9861 47.114C65.7749 44.989 66.1694 42.6869 66.1694 40.2077C66.1694 37.7286 65.7749 35.4184 64.9861 33.2773C64.1973 31.1362 62.9819 29.4056 61.3398 28.0856C59.6978 26.7655 57.605 26.1054 55.0614 26.1054C52.5178 26.1054 50.425 26.7655 48.783 28.0856C47.141 29.4056 45.9255 31.1362 45.1367 33.2773C44.3479 35.4184 43.9535 37.7286 43.9535 40.2077C43.9535 42.6869 44.3479 44.989 45.1367 47.114C45.9255 49.239 47.141 50.9535 48.783 52.2574C50.425 53.5614 52.5178 54.2134 55.0614 54.2134ZM96.6981 21.4691V26.2986H88.7777V47.935C88.7777 49.5448 89.0111 50.7522 89.478 51.5572C89.9609 52.346 90.5727 52.8772 91.3132 53.1509C92.0698 53.4085 92.8667 53.5373 93.7038 53.5373C94.3316 53.5373 94.8468 53.5051 95.2493 53.4407L96.2152 53.2475L97.3743 58.3668C96.9879 58.5117 96.4486 58.6566 95.7564 58.8015C95.0641 58.9625 94.1868 59.043 93.1243 59.043C91.5144 59.043 89.9368 58.6968 88.3913 58.0046C86.862 57.3124 85.5902 56.2579 84.576 54.8412C83.5779 53.4246 83.0788 51.6376 83.0788 49.4805V26.2986H77.4765V21.4691H83.0788V12.5827H88.7777V21.4691H96.6981ZM124.939 60.4188C121.194 60.4188 117.907 59.6283 115.064 58.0472C112.233 56.4662 110.03 54.2527 108.454 51.3956C106.89 48.5384 106.102 45.2408 106.102 41.4801V40.5767C106.102 36.7708 106.89 33.4394 108.454 30.5822C110.018 27.725 112.199 25.5115 114.984 23.9305C117.77 22.3494 120.955 21.5589 124.551 21.5589C128.147 21.5589 131.126 22.293 133.809 23.7724C136.492 25.2518 138.592 27.3636 140.111 30.1192C141.629 32.8747 142.394 36.1045 142.394 39.8087V42.5078H112.096C112.244 46.4604 113.534 49.5548 115.966 51.7795C118.397 54.0043 121.434 55.1223 125.076 55.1223C128.261 55.1223 130.715 54.3996 132.439 52.9427C134.163 51.4859 135.476 49.758 136.389 47.7591L141.549 50.2324C140.784 51.7795 139.734 53.338 138.398 54.8852C137.051 56.4323 135.316 57.7423 133.158 58.7926C131.001 59.8429 128.261 60.3736 124.916 60.3736L124.939 60.4188ZM112.187 37.663H136.332C136.127 34.2638 134.951 31.6099 132.804 29.7013C130.647 27.8041 127.907 26.8441 124.562 26.8441C121.217 26.8441 118.386 27.7928 116.206 29.7013C114.025 31.6099 112.689 34.2638 112.176 37.663H112.187ZM198.286 22.6434V74.3889L198.298 74.4001H204.291V53.598H205.353C205.958 54.7048 206.814 55.7776 207.933 56.8279C209.052 57.8782 210.501 58.7365 212.305 59.4141C214.097 60.0917 216.289 60.4305 218.869 60.4305C222.111 60.4305 225.068 59.6738 227.717 58.1718C230.365 56.6698 232.489 54.4902 234.053 51.633C235.617 48.7758 236.404 45.3992 236.404 41.4917V40.5205C236.404 36.5679 235.605 33.1799 234.007 30.3792C232.409 27.5785 230.285 25.4102 227.625 23.8856C224.965 22.361 222.043 21.5931 218.858 21.5931C215.011 21.5931 212.008 22.3159 209.862 23.7727C207.704 25.2295 206.152 26.8783 205.193 28.7304H204.131V22.6434H198.286ZM226.644 51.5088C224.246 53.9482 221.118 55.1565 217.271 55.1565C213.481 55.1565 210.353 53.9369 207.899 51.5088C205.444 49.0808 204.211 45.6928 204.211 41.3336V40.656C204.211 36.2969 205.444 32.9089 207.899 30.4808C210.353 28.0528 213.424 26.8332 217.271 26.8332C221.118 26.8332 224.235 28.0528 226.644 30.4808C229.052 32.9089 230.251 36.2969 230.251 40.656V41.3336C230.251 45.6928 229.041 49.0808 226.644 51.5088ZM262.434 60.4188C258.689 60.4188 255.401 59.6283 252.559 58.0472C249.728 56.4662 247.524 54.2527 245.949 51.3956C244.385 48.5384 243.597 45.2408 243.597 41.4801V40.5767C243.597 36.7708 244.385 33.4394 245.949 30.5822C247.513 27.725 249.693 25.5115 252.479 23.9305C255.264 22.3494 258.45 21.5589 262.046 21.5589C265.642 21.5589 268.621 22.293 271.304 23.7724C273.987 25.2518 276.087 27.3636 277.606 30.1192C279.124 32.8747 279.889 36.1045 279.889 39.8087V42.5078H249.591C249.739 46.4604 251.029 49.5548 253.461 51.7795C255.892 54.0043 258.929 55.1223 262.571 55.1223C265.756 55.1223 268.21 54.3996 269.934 52.9427C271.658 51.4859 272.971 49.758 273.884 47.7591L279.044 50.2324C278.279 51.7795 277.229 53.338 275.893 54.8852C274.546 56.4323 272.811 57.7423 270.653 58.7926C268.496 59.8429 265.756 60.3736 262.411 60.3736L262.434 60.4188ZM249.682 37.663H273.827C273.621 34.2638 272.446 31.6099 270.299 29.7013C268.142 27.8041 265.402 26.8441 262.057 26.8441C258.712 26.8441 255.881 27.7928 253.701 29.7013C251.52 31.6099 250.184 34.2638 249.671 37.663H249.682ZM288.724 22.6433V59.3688H294.717V36.9857C294.717 33.8801 295.539 31.5875 297.183 30.1081C298.827 28.6287 300.996 27.8947 303.679 27.8947H308.462V22.4852H304.055C301.829 22.4852 300.037 22.8579 298.667 23.6145C297.297 24.3712 296.293 25.5457 295.63 27.1493H294.569V22.6433H288.724Z" fill="url(#paint0_linear_6122_394)"/>
<defs>
<linearGradient id="paint0_linear_6122_394" x1="334.595" y1="43.803" x2="-11.0435" y2="44.2741" gradientUnits="userSpaceOnUse">
<stop stop-color="#859398"/>
<stop offset="0.39918" stop-color="#D1F593"/>
<stop offset="1" stop-color="#859398"/>
</linearGradient>
</defs>
</svg>
